PathFileType	4	(X/Y/Z)	OpenSim_Sub10_EMGStiffKnee_Accel.trc
DataRate	CameraRate	NumFrames	NumMarkers	Units	OrigDataRate	OrigDataStartFrame	OrigNumFrames
100	100	34	8	m	100	1047	8371
Frame#	Time	torso_imu_offset_imu	pelvis_imu_offset_imu	tibia_r_imu_offset_imu	femur_r_imu_offset_imu	tibia_l_imu_offset_imu	femur_l_imu_offset_imu	toes_r_imu_offset_imu	toes_l_imu_offset_imu
				X1	Y1	Z1	X2	Y2	Z2	X3	Y3	Z3	X4	Y4	Z4	X5	Y5	Z5	X6	Y6	Z6	X7	Y7	Z7	X8		Y8	Z8	

1047	10.46000000	9.50524300	-0.94697200	5.60184500	8.29776400	2.43962000	4.71468300	10.00522500	0.97468200	-0.02398300	8.85749500	-2.40384200	-0.68460300	8.73435100	-1.77709000	3.61917500	9.63398400	0.99535500	0.69469100	4.93547000	0.20097800	8.75814600	5.12843600	2.03243600	12.77364400
1048	10.47000000	9.41728700	-0.98772000	5.61093500	8.36239200	2.63812700	4.66502000	9.82506300	1.58810400	-0.19903200	8.73691500	-2.19249900	-0.71025700	8.70657000	-2.54281700	3.45226700	9.81908000	1.16026400	0.73588700	5.07585100	0.13991800	8.67805400	5.63541100	2.33157400	13.84045100
1049	10.48000000	9.25096900	-1.06482000	5.59495700	8.44388100	2.75589800	4.46155100	9.75856200	1.91905900	-0.56419800	8.62302100	-1.54696500	-0.75580800	9.01461600	-3.62185100	3.19671300	10.02909700	1.26498300	0.56526100	5.00795000	0.13196300	8.78812200	6.37294400	1.53194100	14.77535200
1050	10.49000000	9.06376700	-1.07219000	5.61339600	8.42737900	2.80249000	4.32558900	9.74268700	1.98021200	-0.60266800	8.65768500	-0.82715400	-0.78333600	9.61962700	-4.29603100	2.61871000	9.77213000	1.54698600	0.30410500	5.31229600	0.09128200	8.48966900	6.98561400	0.95416100	15.47421400
1051	10.50000000	8.84476500	-1.16842600	5.55067700	8.31665700	2.88521100	4.14409300	9.77321400	1.85983700	-1.02404400	8.80391300	-0.12917700	-0.83133900	10.19936400	-4.29775400	2.24764500	9.48403200	1.89582000	0.07903300	5.25648900	0.06802500	8.67055600	7.43858000	1.34071800	15.77087900
1052	10.51000000	8.77353200	-1.23536900	5.47665800	8.20861500	2.93604100	4.05739100	9.73952200	1.70150700	-0.83736000	9.05623100	0.39666800	-0.86527400	10.60652300	-3.91527900	2.18838000	9.09719300	2.35962500	0.06596400	5.06496900	-0.17426800	8.52571600	7.70205500	1.91286200	15.62642600
1053	10.52000000	8.67750300	-1.28487500	5.38596700	8.05043000	2.92155800	3.94728500	9.74045400	1.63840700	-0.62409800	9.12902000	0.77027700	-1.03232400	10.61403100	-3.08651800	2.38341300	8.72976600	2.93438000	0.34042600	4.96136900	0.02386400	8.67577800	7.82976200	1.77571200	14.93646700
1054	10.53000000	8.56792200	-1.27421600	5.41385400	8.01660600	2.89683500	3.83283300	9.69272900	1.63592800	-0.52762800	9.03249000	0.99318700	-1.02444700	10.44344100	-1.88362000	2.75788900	8.45003600	3.39250200	0.58902200	5.18136600	0.10779500	8.55142300	7.82884300	1.33740900	14.25113100
1055	10.54000000	8.55335300	-1.25408300	5.38160400	8.05545500	2.84074200	3.67504000	9.78842700	1.79878300	-0.41774400	8.95069600	1.14706000	-0.80936700	10.45544800	-1.17584100	3.22710300	8.40453200	3.77607800	0.69890400	4.95999200	0.07660500	8.68264700	7.94955400	0.70398100	13.96675200
1056	10.55000000	8.62647800	-1.15929200	5.47467200	8.07554900	2.86255000	3.55848400	9.82857000	2.02702700	0.03956200	8.74000900	1.24580500	-0.61559100	10.58025500	-1.20667900	3.15765900	8.43910100	3.85620900	0.87122700	4.86621200	0.18221900	8.63436100	8.81934900	-0.09657100	14.03854500
1057	10.56000000	8.72333400	-1.08284100	5.54806800	8.14781400	2.93517400	3.43972800	9.82334500	1.99182700	-0.02711100	8.70162500	1.32298600	-0.41528800	10.68390900	-1.30434100	2.55207100	8.36488200	4.01987400	0.88233400	5.05888300	0.40461100	8.62703400	9.35957900	-0.66602100	14.01275000
1058	10.57000000	8.77742300	-0.88274800	5.59672100	8.24775700	3.06760700	3.42793500	9.78193900	1.56030200	-0.12649400	8.88951000	1.43605000	-0.31074600	11.01081900	-1.46739800	2.06282600	8.19356900	4.21633700	0.95168000	5.21343800	0.37858600	8.44910700	9.30768800	-1.06787700	13.69027100
1059	10.58000000	8.87293700	-0.82216000	5.65324800	8.29978900	3.23815100	3.42639100	9.75832300	1.01756500	-0.17328900	9.04815300	1.50776600	-0.31320400	11.14568900	-1.70591300	1.53382300	8.07043500	4.18263600	0.90208100	4.93600800	0.23400700	8.61774400	9.32112200	-1.25204200	13.16792000
1060	10.59000000	8.85017700	-0.78118000	5.79321700	8.27106000	3.33491400	3.52961600	9.84585400	0.60304900	-0.16113400	9.18762700	1.50441500	-0.25416700	11.04484900	-1.84637500	1.17542800	7.96151000	3.95846700	0.83467500	4.92540700	0.08776900	8.54604500	9.59636100	-0.96466500	12.95174800
1061	10.60000000	8.81612100	-0.81428600	5.87412700	8.19482100	3.46583500	3.58660000	9.96584200	0.30357200	-0.04167900	9.21478800	1.46872600	-0.24989100	10.90314600	-1.88101000	1.06722300	7.86920600	3.89542300	0.67087400	4.85338800	0.17057800	8.64005700	10.14667400	-1.42660400	12.51055800
1062	10.61000000	8.74665700	-0.83956100	5.83787400	8.09201100	3.56489100	3.63347600	9.96338400	0.00827000	-0.22983700	9.35158100	1.25478700	-0.19100000	10.96538000	-2.01430700	1.13976700	7.86470400	3.80700700	0.62933700	4.62335600	0.21540900	8.78720400	11.00620800	-0.96157400	12.01935700
1063	10.62000000	8.74659300	-0.90345500	5.80115700	8.08594800	3.63469900	3.69297500	9.95821000	0.01794200	0.05562500	9.50782800	0.92431900	-0.30630900	10.78848600	-1.93378900	1.69277000	7.76597400	3.89822400	0.70690600	4.75097900	0.15300200	8.63172900	11.88354500	-0.33893000	11.17896500
1064	10.63000000	8.76671900	-0.97213600	5.72948700	8.14841500	3.59580200	3.72810800	10.19496000	0.06706900	-0.06678500	9.65782400	0.56519900	-0.47446700	10.21454100	-1.83855000	2.52340600	7.63382300	4.06843900	0.84382300	4.47209200	0.10721400	8.94478100	12.27716800	-0.98366000	9.95052300
1065	10.64000000	8.78526400	-1.10526200	5.70075000	8.28608700	3.53083500	3.68976600	10.18617300	0.21586300	0.33865500	9.73349900	0.27570500	-0.51155400	9.55893900	-1.77969100	2.83187500	7.67007200	4.21927400	0.90581300	4.67895700	0.09724400	8.91803500	12.23700400	-1.94517900	8.24074400
1066	10.65000000	8.89518600	-1.17445000	5.81338200	8.40184500	3.44627200	3.57572500	10.08137500	0.54170400	0.78536100	9.76933500	0.17185600	-0.56646300	9.17877600	-1.32874000	2.62163400	7.82180000	4.39246900	1.04199000	4.62347200	0.45825100	8.88946800	11.79272900	-1.94989600	6.73279400
1067	10.66000000	8.95905400	-1.17347200	5.88662700	8.49232900	3.31832000	3.48450500	10.05222100	0.97738000	1.01348200	9.44224500	-0.06154500	-0.45286800	8.91466200	-0.50357600	2.04698500	8.08608600	4.58372900	0.99880200	5.16583700	1.10560000	8.91550900	11.97458900	-1.41451400	5.59666800
1068	10.67000000	9.02806700	-1.07209100	5.91049000	8.58983200	3.28071500	3.44822100	10.10499300	1.23672600	0.40741900	9.40079200	-0.11826700	-0.47179300	8.87409900	0.32294900	1.69032400	8.31724500	5.03382800	0.76332500	4.80310000	0.81896000	8.97581800	12.57147700	-0.39632100	4.95967600
1069	10.68000000	9.07131300	-0.98645900	5.91943800	8.58900400	3.19001900	3.35557500	10.16342200	1.42631600	0.31251400	9.40015500	-0.18455700	-0.55072100	9.10255700	0.59271000	1.46889000	8.46635900	5.22154500	0.53319100	4.83117900	0.51837000	8.97271700	12.91383300	-0.23517200	4.01043600
1070	10.69000000	9.20547400	-0.93039100	5.86900100	8.56331100	3.06743600	3.24956900	10.40504900	1.42115200	-0.18865000	9.59700700	-0.09556200	-0.62178600	9.08077600	0.69964100	1.73416100	8.38338400	5.34974000	0.35630700	4.65524500	0.32067700	9.15091700	13.20493300	0.07775400	3.29634200
1071	10.70000000	9.29860100	-1.01703800	5.77113600	8.51671300	2.96373200	3.07199100	10.33324300	1.14715100	-0.38270200	9.55129800	-0.05649600	-0.72999800	8.72603600	0.46212000	1.91729800	8.24206400	5.56612000	0.39682000	4.90666700	0.09216000	8.78001000	13.23962600	0.19215300	2.44991100
1072	10.71000000	9.39819100	-1.03127400	5.70047900	8.39987500	2.89836400	2.89847600	10.20203900	1.04750100	-0.13348300	9.36725700	0.11012800	-0.79842000	8.47223800	0.30203400	1.78460400	7.93959100	5.90772700	0.48151400	5.02204700	0.52279700	8.86301000	11.74196300	-0.73354200	0.89536600
1073	10.72000000	9.46394800	-1.19564900	5.67291000	8.23309300	2.81932500	2.78749900	10.11381700	1.11293700	-0.09713200	9.05507100	0.13746700	-0.84538500	8.49359900	0.02346100	1.44502000	7.51331100	6.29699200	0.57259600	4.93524800	0.59440200	8.95995500	11.19397300	-0.27379700	0.39691800
1074	10.73000000	9.38756100	-1.15387700	5.56746900	8.12520900	2.86307600	2.59925900	10.04108800	1.06847800	-0.34456500	8.84561600	-0.03559800	-0.77433300	8.21042100	-0.24668300	1.59388500	7.03568600	6.38843400	0.53846300	5.04645500	0.05644800	8.72050500	11.17915800	0.07815200	0.42944900
1075	10.74000000	9.31739300	-1.11892900	5.55284900	7.99454200	2.92269600	2.28751100	9.65245600	0.66169900	0.17002700	8.87624800	-0.25262400	-0.75018500	7.73370100	-0.30479900	1.91022200	6.73477800	6.12226600	0.35552500	4.86975800	-0.12957600	8.63464300	12.74630800	0.93159700	1.55091300
1076	10.75000000	9.29743000	-1.16054900	5.38878700	7.91266500	2.99813100	2.10511400	9.60081600	0.01645300	0.80187000	9.04691400	-0.51936700	-0.67291700	7.36168000	-0.55092100	1.53609300	6.43856000	5.62218000	0.31782600	5.14355400	0.41707900	8.86979600	13.35724800	2.51048900	2.85005400
1077	10.76000000	9.38248400	-1.26047700	5.36598400	7.93062800	3.12466900	1.77645100	9.99482300	-0.44385300	1.14895200	9.16602700	-0.79931500	-0.48683600	7.08213200	-1.31632200	0.74276700	6.30269900	4.95281800	0.35662700	5.09639900	1.12431100	9.05209800	11.83565000	2.85417200	3.02864500
1078	10.77000000	9.40777400	-1.19165500	5.42332300	8.02373100	3.26010600	1.71987500	10.71374200	-0.29726200	1.54127200	9.42150900	-0.96143400	-0.26244400	6.93043400	-2.54782100	0.64965100	6.08115600	4.42470700	0.84640000	4.63360700	2.21605300	9.95611600	7.75504200	-1.98831100	-3.27510900
1079	10.78000000	9.50415400	-1.17399300	5.53817100	8.31229100	3.46194400	2.62014000	11.20604000	0.03062800	1.88065300	9.85728100	-1.19339900	-0.14874100	8.04538200	-3.25636100	0.26542300	6.11110000	4.05411500	1.65783100	4.71149300	0.51947100	9.36933200	-5.45451000	3.69204800	4.98351600
1080	10.79000000	10.01640700	-1.23777200	5.73104900	9.08604000	3.57696300	4.00102400	11.71558400	-0.13548000	1.34589500	10.53298100	-1.38320500	-0.30047300	10.63426500	-1.13591900	1.32748600	7.60002500	4.07520000	2.07407900	4.97496600	1.60686400	10.21771300	6.45614600	3.54385300	20.50458900
